<?xml version="1.0" encoding="UTF-8"?>
<svg viewBox="0 0 250 220" xmlns="http://www.w3.org/2000/svg">
 <defs>
  <filter id="a" x="0" y="0" width="1" height="1">
   <feGaussianBlur result="result6" stdDeviation="1.5"/>
   <feComposite in="SourceGraphic" in2="result6" operator="atop" result="result8"/>
   <feComposite in="result8" in2="SourceAlpha" operator="atop" result="fbSourceGraphic"/>
   <feColorMatrix in="fbSourceGraphic" result="fbSourceGraphicAlpha" values="0 0 0 -1 0 0 0 0 -1 0 0 0 0 -1 0 0 0 0 1 0"/>
   <feGaussianBlur in="fbSourceGraphic" result="result3" stdDeviation="5"/>
   <feComposite in="result3" in2="result3" k1=".5" k3=".5" operator="arithmetic" result="result1"/>
   <feBlend in="fbSourceGraphic" in2="result1" mode="screen" result="result5"/>
   <feBlend in="result5" in2="result5" mode="darken" result="result6"/>
   <feComposite in2="fbSourceGraphic" operator="in"/>
  </filter>
  <radialGradient id="b" cx="-119.23" cy="826.96" r="26.356" gradientTransform="matrix(.48832 .68519 -.53405 1.5958 380.63 -419.72)" gradientUnits="userSpaceOnUse">
   <stop stop-color="#eee" offset="0"/>
   <stop stop-color="#eee" stop-opacity="0" offset="1"/>
  </radialGradient>
 </defs>
 <g transform="matrix(.98175 0 0 .83534 -213.22 -514.86)">
  <g transform="matrix(.15102 -.02299 0 .16622 331.21 612.54)" filter="url(#a)" stroke="#3d3e44">
   <path transform="matrix(2.7854 -.41799 0 1.4718 -648.97 -292.66)" d="m538.94 1021.3c4.2872 69.571 0.50999 152.33-20.323 150.16-8.7967-0.9165-25.187-7.8511-32.673-39.467-4.7741-20.162-6.9422-55.198-6.9422-81.072 0-51.113 4.9869-93.868 22.467-101.88 19.482-8.9299 37.472 21.152 37.472 72.265z" fill-rule="evenodd" stroke-linecap="round" stroke-linejoin="round" stroke-width="7.4812"/>
   <path transform="matrix(1.5344 -.23343 0 1.1675 -1.333 -61.968)" d="m544.84 1050.9c0 51.113-12.698 92.548-28.362 92.548s-28.362-41.435-28.362-92.548 12.698-92.548 28.362-92.548 28.362 41.435 28.362 92.548z" fill="#333" fill-rule="evenodd" stroke-linecap="round" stroke-linejoin="round" stroke-width="11.318"/>
   <path transform="matrix(1.5344 -.23343 0 1.1675 1.6524 -53.431)" d="m544.84 1050.9c0 51.113-12.698 92.548-28.362 92.548s-28.362-41.435-28.362-92.548 12.698-92.548 28.362-92.548 28.362 41.435 28.362 92.548z" fill="#666" fill-rule="evenodd" stroke-linecap="round" stroke-linejoin="round" stroke-width="11.318"/>
   <path transform="matrix(1.3132 -.19979 0 .99923 117.36 102.08)" d="m544.84 1050.9c0 51.113-12.698 92.548-28.362 92.548s-28.362-41.435-28.362-92.548 12.698-92.548 28.362-92.548 28.362 41.435 28.362 92.548z" fill="#eee" fill-rule="evenodd" stroke-linecap="round" stroke-linejoin="round" stroke-width="13.223"/>
   <path d="m780.69 1114.7c-14.927-17.251-19.154-62.49-14.927-88.958 2.5919-16.232 6.5454-44.754 23.883-37.689 21.411 8.7246 24.777 62 23.883 68.294-7.4636 52.548-30.504 61.052-32.84 58.353z" fill="#99979c" stroke-width="15.148"/>
  </g>
  <g transform="matrix(.22201 -.03442 0 .24886 209.31 559.89)" filter="url(#a)" stroke="#3d3e44">
   <path transform="matrix(2.7854 -.41799 0 1.4718 -648.97 -292.66)" d="m538.94 1021.3c4.2872 69.571 0.50999 152.33-20.323 150.16-8.7967-0.9165-25.187-7.8511-32.673-39.467-4.7741-20.162-6.9422-55.198-6.9422-81.072 0-51.113 4.9869-93.868 22.467-101.88 19.482-8.9299 37.472 21.152 37.472 72.265z" fill-rule="evenodd" stroke-linecap="round" stroke-linejoin="round" stroke-width="5.0427"/>
   <path transform="matrix(1.5344 -.23343 0 1.1675 -1.333 -61.968)" d="m544.84 1050.9c0 51.113-12.698 92.548-28.362 92.548s-28.362-41.435-28.362-92.548 12.698-92.548 28.362-92.548 28.362 41.435 28.362 92.548z" fill="#333" fill-rule="evenodd" stroke-linecap="round" stroke-linejoin="round" stroke-width="7.6286"/>
   <path transform="matrix(1.5344 -.23343 0 1.1675 1.6524 -53.431)" d="m544.84 1050.9c0 51.113-12.698 92.548-28.362 92.548s-28.362-41.435-28.362-92.548 12.698-92.548 28.362-92.548 28.362 41.435 28.362 92.548z" fill="#666" fill-rule="evenodd" stroke-linecap="round" stroke-linejoin="round" stroke-width="7.6286"/>
   <path transform="matrix(1.3132 -.19979 0 .99923 117.36 102.08)" d="m544.84 1050.9c0 51.113-12.698 92.548-28.362 92.548s-28.362-41.435-28.362-92.548 12.698-92.548 28.362-92.548 28.362 41.435 28.362 92.548z" fill="#eee" fill-rule="evenodd" stroke-linecap="round" stroke-linejoin="round" stroke-width="8.9133"/>
   <path d="m780.69 1114.7c-14.927-17.251-19.154-62.49-14.927-88.958 2.5919-16.232 6.5454-44.754 23.883-37.689 21.411 8.7246 24.777 62 23.883 68.294-7.4636 52.548-30.504 61.052-32.84 58.353z" fill="#99979c" stroke-width="10.21"/>
  </g>
  <g transform="matrix(.17684 -.02268 0 .16396 118.56 642.48)" filter="url(#a)" stroke="#3d3e44">
   <path transform="matrix(2.7854 -.41799 0 1.4718 -648.97 -292.66)" d="m538.94 1021.3c4.2872 69.571 0.50999 152.33-20.323 150.16-8.7967-0.9165-25.187-7.8511-32.673-39.467-4.7741-20.162-6.9422-55.198-6.9422-81.072 0-51.113 4.9869-93.868 22.467-101.88 19.482-8.9299 37.472 21.152 37.472 72.265z" fill-rule="evenodd" stroke-linecap="round" stroke-linejoin="round" stroke-width="6.9611"/>
   <path transform="matrix(1.5344 -.23343 0 1.1675 -1.333 -61.968)" d="m544.84 1050.9c0 51.113-12.698 92.548-28.362 92.548s-28.362-41.435-28.362-92.548 12.698-92.548 28.362-92.548 28.362 41.435 28.362 92.548z" fill="#333" fill-rule="evenodd" stroke-linecap="round" stroke-linejoin="round" stroke-width="10.531"/>
   <path transform="matrix(1.5344 -.23343 0 1.1675 1.6524 -53.431)" d="m544.84 1050.9c0 51.113-12.698 92.548-28.362 92.548s-28.362-41.435-28.362-92.548 12.698-92.548 28.362-92.548 28.362 41.435 28.362 92.548z" fill="#666" fill-rule="evenodd" stroke-linecap="round" stroke-linejoin="round" stroke-width="10.531"/>
   <path transform="matrix(1.3132 -.19979 0 .99923 117.36 102.08)" d="m544.84 1050.9c0 51.113-12.698 92.548-28.362 92.548s-28.362-41.435-28.362-92.548 12.698-92.548 28.362-92.548 28.362 41.435 28.362 92.548z" fill="#eee" fill-rule="evenodd" stroke-linecap="round" stroke-linejoin="round" stroke-width="12.304"/>
   <path d="m780.69 1114.7c-14.927-17.251-19.154-62.49-14.927-88.958 2.5919-16.232 6.5454-44.754 23.883-37.689 21.411 8.7246 24.777 62 23.883 68.294-7.4636 52.548-30.504 61.052-32.84 58.353z" fill="#99979c" stroke-width="14.095"/>
  </g>
  <path transform="matrix(.25 0 0 .25 256.02 548.58)" d="m-125.39 995.64s-22.007-257.93 1.4927-383.63c13.806-73.847 80.606-210.47 80.606-210.47l406.02-11.942c10.553 219.62-10.36 440.84-7.4636 656.79-159.49-6.7647-317.47 7.6305-480.65-50.752z" fill="#002b3d" filter="url(#a)" stroke="#3d3e44" stroke-width="9.6"/>
  <path transform="matrix(.25 0 0 .25 256.02 548.58)" d="m-47.767 397.06 400.05-4.4781 443.34 29.854s-50.233-74.587-434.38-104.49c-245.78-19.132-432.36 51.082-409 79.114z" fill="#f2f6f9" filter="url(#a)" stroke="#3d3e44" stroke-width="9.6"/>
  <path transform="matrix(.25 0 0 .25 256.02 548.58)" d="m356.76 1046.4c-9.2485-219.29-3.0398-435.48 7.4636-650.82l431.39 26.869c47.305 140.03 34.791 275.79 28.362 411.99l-5.9708 11.942-1.4927-47.767-58.216 20.898-8.9563 73.143-192.56 110.46s20.141-128.77-25.376-135.84c-53.015-8.2295-76.128 141.81-76.128 141.81l-98.519 37.318z" fill="#002b3d" filter="url(#a)" stroke="#3d3e44" stroke-width="9.6"/>
  <path transform="matrix(.25 0 0 .25 256.02 548.58)" d="m-14.052 410.99 119.16-3.9758c16.197 1.0828 6.8462 6.067 6.8462 22.3l-34.332 138.43c0 16.233-23.489 29.923-39.686 28.84l-122.14-0.50229c-16.197-1.0828-12.817-7.5597-12.817-23.793l53.738-133.96c0-16.233 13.04-28.43 29.237-27.348z" fill="#cccccf" fill-rule="evenodd" filter="url(#a)" stroke="#3d3e44" stroke-linecap="round" stroke-linejoin="round" stroke-width="9.6"/>
  <path transform="matrix(.22913 0 0 .22913 260.69 559)" d="m156.12 402.04 178.87-3.9758c16.197 1.0828 27.744 19.501 27.744 35.735l-14.927 130.97c0 16.233-19.01 31.416-35.208 30.333l-214.69 5.4686c-16.197-1.0828-12.817-7.5597-12.817-23.793l38.81-151.87c0-16.233 16.025-23.952 32.222-22.869z" fill="#cccccf" fill-rule="evenodd" filter="url(#a)" stroke="#3d3e44" stroke-linecap="round" stroke-linejoin="round" stroke-width="9.6"/>
  <path transform="matrix(.60349 0 0 .29473 383.18 519.01)" d="m-82.846 836.29c0 26.587-10.526 48.14-23.51 48.14s-23.51-21.553-23.51-48.14 10.526-48.14 23.51-48.14 23.51 21.553 23.51 48.14z" fill="#aaa" fill-rule="evenodd" filter="url(#a)" stroke="#3d3e44" stroke-linecap="round" stroke-linejoin="round" stroke-width="5.6907"/>
  <path transform="matrix(.42762 0 0 .20302 377.07 564.91)" d="m-82.846 836.29c0 26.587-10.526 48.14-23.51 48.14s-23.51-21.553-23.51-48.14 10.526-48.14 23.51-48.14 23.51 21.553 23.51 48.14z" fill="#f44800" fill-rule="evenodd" filter="url(#a)" stroke="#3d3e44" stroke-linecap="round" stroke-linejoin="round" stroke-width="8.1453"/>
  <path transform="matrix(.2862 0 0 .18047 257.91 580.42)" d="m-82.846 836.29c0 26.587-10.526 48.14-23.51 48.14s-23.51-21.553-23.51-48.14 10.526-48.14 23.51-48.14 23.51 21.553 23.51 48.14z" fill="#f44800" fill-rule="evenodd" filter="url(#a)" stroke="#3d3e44" stroke-linecap="round" stroke-linejoin="round" stroke-width="10.56"/>
  <path transform="matrix(.25 0 0 .25 256.02 548.58)" d="m-115.64 954.49s-7.276 24.457 13.719 29.076c213.13 46.892 367.92 29.076 367.92 29.076l106.01-25.721c16.869 7.0889 4.9948 32.586 0 53.678 0 0-118.18 53.307-334.25 25.721-58.231-7.4347-137.63-26.88-169.62-43.614-12.044-6.3001-10.365-24.671-7.4832-36.904 2.9074-12.341 23.697-31.312 23.697-31.312z" fill="#eee" filter="url(#a)" stroke="#3d3e44" stroke-width="9.6"/>
  <path transform="matrix(-.23853 0 0 .21273 432.51 565.51)" d="m152.8 409.48 182.19-11.418c16.197 1.0828 7.8316 4.6163 7.8316 20.85l4.9854 145.86c0 16.233-12.373 31.416-28.57 30.333l-186.48-26.162c-16.197-1.0828-27.751-24.305-27.751-40.539l18.898-96.049c0-16.233 12.706-23.952 28.904-22.869z" fill="#cccccf" fill-rule="evenodd" filter="url(#a)" stroke="#3d3e44" stroke-linecap="round" stroke-linejoin="round" stroke-width="9.6"/>
  <path transform="matrix(-.16694 0 0 .14777 464.59 597.76)" d="m188.36 388.05 158.48-11.418c16.197 1.0828 5.4606 12.652-4.0236 42.278l-11.612 145.86c0 16.233 4.2243 31.416-11.973 30.333l-134.32-26.162c-16.197-1.0828-25.38-2.877-25.38-19.11l16.527-149.62c0-16.233-3.891-13.238 12.306-12.155z" fill="#cccccf" fill-rule="evenodd" filter="url(#a)" stroke="#3d3e44" stroke-linecap="round" stroke-linejoin="round" stroke-width="9.6"/>
  <path transform="matrix(-.08906 0 0 .10159 470.67 618.03)" d="m188.36 388.05 158.48-11.418c16.197 1.0828 5.4606 12.652-4.0236 42.278l-11.612 145.86c0 16.233 4.2243 31.416-11.973 30.333l-134.32-26.162c-16.197-1.0828-25.38-2.877-25.38-19.11l16.527-149.62c0-16.233-3.891-13.238 12.306-12.155z" fill="#cccccf" fill-rule="evenodd" filter="url(#a)" stroke="#3d3e44" stroke-linecap="round" stroke-linejoin="round" stroke-width="9.6"/>
  <path d="m376.47 727.18 10.15-1.5526 0.2743-2.0701 5.7607 2.0701-3.2918 2.8464-12.893-1.2938z" fill="#cccccf" stroke="#000" stroke-width=".23798"/>
  <path d="m412.02 716.82 7.6777-1.1744 0.20749-1.5659 4.3576 1.5659-2.49 2.1531-9.7527-0.97871z" fill="#cccccf" stroke="#000" stroke-width=".18002"/>
  <path d="m348.18 791.51 1.1195-94.041 55.977-7.8367-1.1195 70.531-30.227 7.8368-3.3586 17.913-22.391 5.5977z" fill="none" stroke="#505a88"/>
  <path d="m408.63 690.75v95.16l29.108-13.434v-88.443l-23.51 4.4781" fill="none" stroke="#1d275c"/>
  <path transform="matrix(.60349 0 0 .29473 383.18 519.01)" d="m-82.846 836.29c0 26.587-10.526 48.14-23.51 48.14s-23.51-21.553-23.51-48.14 10.526-48.14 23.51-48.14 23.51 21.553 23.51 48.14z" fill="url(#b)" fill-rule="evenodd" filter="url(#a)" stroke="#3d3e44" stroke-linecap="round" stroke-linejoin="round" stroke-width="5.6907"/>
  <path transform="matrix(-.33347 0 0 .25588 193.97 542.54)" d="m-82.846 836.29c0 26.587-10.526 48.14-23.51 48.14s-23.51-21.553-23.51-48.14 10.526-48.14 23.51-48.14 23.51 21.553 23.51 48.14z" fill="#aaa" fill-rule="evenodd" filter="url(#a)" stroke="#3d3e44" stroke-linecap="round" stroke-linejoin="round" stroke-width="5.6907"/>
  <path transform="matrix(-.33347 0 0 .25588 193.97 542.54)" d="m-82.846 836.29c0 26.587-10.526 48.14-23.51 48.14s-23.51-21.553-23.51-48.14 10.526-48.14 23.51-48.14 23.51 21.553 23.51 48.14z" fill="url(#b)" fill-rule="evenodd" filter="url(#a)" stroke="#3d3e44" stroke-linecap="round" stroke-linejoin="round" stroke-width="5.6907"/>
  <path transform="matrix(.99779,-.06649,0,1,0,0)" d="m446.26004,730.71576h11.039a.67438,.67438 0 0,1 .67438.67438 .67438,.67438 0 0,1 -.67438.67438h-11.039a.67438,.67438 0 0,1 -.67438-.67438 .67438,.67438 0 0,1 .67438-.67438" fill-rule="evenodd" opacity=".45789"/>
  <path transform="matrix(.99779,-.06649,0,1,0,0)" d="m446.62516,733.18848h10.50543a.44959,.44959 0 0,1 .44959.44959 .44959,.44959 0 0,1 -.44959.44959h-10.50543a.44959,.44959 0 0,1 -.44959-.44959 .44959,.44959 0 0,1 .44959-.44959" fill-rule="evenodd" opacity=".45789"/>
  <path transform="matrix(.99779,-.06649,0,1,0,0)" d="m446.03525,735.21161h12.27512a.44959,.44959 0 0,1 .44959.44959v.22479a.44959,.44959 0 0,1 -.44959.44959h-12.27512a.44959,.44959 0 0,1 -.44959-.44959v-.22479a.44959,.44959 0 0,1 .44959-.44959" fill-rule="evenodd" opacity=".45789"/>
  <path transform="matrix(.99779,-.06649,0,1,0,0)" d="m446.23185,738.3587h12.07848a.44959,.44959 0 0,1 .44959.44959v.89917a.44959,.44959 0 0,1 -.44959.44959h-12.07848a.44959,.44959 0 0,1 -.44959-.44959v-.89917a.44959,.44959 0 0,1 .44959-.44959" fill-rule="evenodd" opacity=".45789"/>
  <path transform="matrix(.99779,-.06649,0,1,0,0)" d="m446.26004,736.71576h11.039a.67438,.67438 0 0,1 .67438.67438 .67438,.67438 0 0,1 -.67438.67438h-11.039a.67438,.67438 0 0,1 -.67438-.67438 .67438,.67438 0 0,1 .67438-.67438" fill-rule="evenodd" opacity=".45789"/>
  <path transform="matrix(.99779,-.06649,0,1,0,0)" d="m446.62516,739.18848h10.50543a.44959,.44959 0 0,1 .44959.44959 .44959,.44959 0 0,1 -.44959.44959h-10.50543a.44959,.44959 0 0,1 -.44959-.44959 .44959,.44959 0 0,1 .44959-.44959" fill-rule="evenodd" opacity=".45789"/>
  <path transform="matrix(.99779,-.06649,0,1,0,0)" d="m446.03525,741.21161h12.27512a.44959,.44959 0 0,1 .44959.44959v.22479a.44959,.44959 0 0,1 -.44959.44959h-12.27512a.44959,.44959 0 0,1 -.44959-.44959v-.22479a.44959,.44959 0 0,1 .44959-.44959" fill-rule="evenodd" opacity=".45789"/>
  <path transform="matrix(.99779,-.06649,0,1,0,0)" d="m446.23185,744.3587h12.07848a.44959,.44959 0 0,1 .44959.44959v.89917a.44959,.44959 0 0,1 -.44959.44959h-12.07848a.44959,.44959 0 0,1 -.44959-.44959v-.89917a.44959,.44959 0 0,1 .44959-.44959" fill-rule="evenodd" opacity=".45789"/>
  <path transform="matrix(.25 0 0 .25 256.02 548.58)" d="m-14.052 410.99 119.16-3.9758c16.197 1.0828 6.8462 6.067 6.8462 22.3l-34.332 138.43c0 16.233-23.489 29.923-39.686 28.84l-122.14-0.50229c-16.197-1.0828-12.817-7.5597-12.817-23.793l53.738-133.96c0-16.233 13.04-28.43 29.237-27.348z" fill="#eee" fill-rule="evenodd" filter="url(#a)" stroke="#3d3e44" stroke-linecap="round" stroke-linejoin="round" stroke-width="9.6"/>
  <path transform="matrix(.22913 0 0 .22913 260.69 559)" d="m156.12 402.04 178.87-3.9758c16.197 1.0828 27.744 19.501 27.744 35.735l-14.927 130.97c0 16.233-19.01 31.416-35.208 30.333l-214.69 5.4686c-16.197-1.0828-12.817-7.5597-12.817-23.793l38.81-151.87c0-16.233 16.025-23.952 32.222-22.869z" fill="#eee" fill-rule="evenodd" filter="url(#a)" stroke="#3d3e44" stroke-linecap="round" stroke-linejoin="round" stroke-width="9.6"/>
  <path transform="matrix(-.23853 0 0 .21273 432.51 565.51)" d="m152.8 409.48 182.19-11.418c16.197 1.0828 7.8316 4.6163 7.8316 20.85l4.9854 145.86c0 16.233-12.373 31.416-28.57 30.333l-186.48-26.162c-16.197-1.0828-27.751-24.305-27.751-40.539l18.898-96.049c0-16.233 12.706-23.952 28.904-22.869z" fill="#cccccf" fill-rule="evenodd" filter="url(#a)" stroke="#3d3e44" stroke-linecap="round" stroke-linejoin="round" stroke-width="9.6"/>
  <path transform="matrix(-.16694 0 0 .14777 464.59 597.76)" d="m188.36 388.05 158.48-11.418c16.197 1.0828 5.4606 12.652-4.0236 42.278l-11.612 145.86c0 16.233 4.2243 31.416-11.973 30.333l-134.32-26.162c-16.197-1.0828-25.38-2.877-25.38-19.11l16.527-149.62c0-16.233-3.891-13.238 12.306-12.155z" fill="#aaa" fill-rule="evenodd" filter="url(#a)" stroke="#3d3e44" stroke-linecap="round" stroke-linejoin="round" stroke-width="9.6"/>
  <path transform="matrix(-.08906 0 0 .10159 470.67 618.03)" d="m188.36 388.05 158.48-11.418c16.197 1.0828 5.4606 12.652-4.0236 42.278l-11.612 145.86c0 16.233 4.2243 31.416-11.973 30.333l-134.32-26.162c-16.197-1.0828-25.38-2.877-25.38-19.11l16.527-149.62c0-16.233-3.891-13.238 12.306-12.155z" fill="#aaa" fill-rule="evenodd" filter="url(#a)" stroke="#3d3e44" stroke-linecap="round" stroke-linejoin="round" stroke-width="9.6"/>
 </g>
</svg>
